<svg width="512" height="512" xmlns="http://www.w3.org/2000/svg"><path fill="#0f172b" fill-rule="evenodd" d="M0 472c0 22.091 17.909 40 40 40h432c22.091 0 40-17.909 40-40V40c0-22.091-17.909-40-40-40H40C17.909 0 0 17.909 0 40z"/><path fill="#5eead4" fill-rule="evenodd" d="M157.779 389V124.176h105.985c19.054 0 35.222 2.857 48.503 8.571 13.281 5.715 23.376 13.655 30.286 23.822s10.364 22.063 10.364 35.687c0 10.135-1.942 19.142-5.826 27.023-3.885 7.88-9.362 14.435-16.432 19.663-7.071 5.229-15.46 9.095-25.17 11.6v.356c10.776.955 20.478 4.078 29.106 9.37 8.629 5.29 15.47 12.485 20.526 21.583 5.055 9.098 7.582 19.922 7.582 32.473 0 14.728-3.545 27.709-10.637 38.943-7.092 11.234-17.546 19.998-31.363 26.292-13.817 6.294-30.787 9.441-50.91 9.441zm53.49-43.026h51.04c14.074 0 25.017-3.01 32.829-9.03 7.812-6.022 11.718-14.555 11.718-25.6 0-7.404-1.732-13.783-5.197-19.137-3.465-5.354-8.452-9.493-14.962-12.416-6.51-2.924-14.367-4.385-23.572-4.385h-51.857zm0-111.703h48.557c8.013 0 14.905-1.361 20.678-4.084 5.773-2.722 10.205-6.604 13.297-11.644 3.092-5.04 4.638-10.976 4.638-17.805 0-10.246-3.438-18.397-10.313-24.453-6.875-6.056-16.309-9.084-28.3-9.084h-48.558z"/></svg>